<svg width="593.221" height="593.238" viewBox="0 0 156.956 156.961" xmlns="http://www.w3.org/2000/svg" xmlns:xlink="http://www.w3.org/1999/xlink" overflow="hidden"><defs><path d="M22.2486 317.691 22.2485 317.691 23.1836 314.79 23.1777 314.79 18.9568 311.173C19.5112 309.876 20.1393 308.613 20.8378 307.388 21.5569 306.173 22.3448 305 23.1979 303.874L28.4179 305.713 28.4355 305.741C29.7297 304.167 31.1723 302.721 32.7435 301.424L32.7213 301.41 30.8744 296.167C32.0028 295.322 33.1785 294.541 34.3959 293.83 35.6263 293.137 36.8953 292.515 38.1967 291.967L41.7977 296.17 41.7999 296.211C43.7096 295.496 45.6838 294.967 47.6951 294.631L47.6765 294.594 48.694 289.154C50.095 288.978 51.5048 288.882 52.9167 288.867 54.3267 288.874 55.7351 288.963 57.1351 289.131L58.157 294.594 58.1399 294.628C60.1507 294.965 62.1244 295.494 64.0336 296.21L64.0357 296.169 67.6368 291.967C68.9382 292.515 70.2072 293.137 71.4376 293.83 72.655 294.541 73.8307 295.322 74.9591 296.167L73.1122 301.41 73.0987 301.419C74.6683 302.716 76.1094 304.161 77.4021 305.734L77.4155 305.714 82.6356 303.875C83.4886 305 84.2766 306.173 84.9957 307.388 85.6942 308.613 86.3223 309.877 86.8767 311.173L82.6558 314.79 82.6377 314.791 83.5849 317.692C63.9654 325.91 41.8682 325.91 22.2487 317.692Z" id="B"/><path d="M-948.969 316.652C-954.507 330.071-947.046 377.074-942.055 388.022-947.79 398.241-949.675 431.665-947 449.75-944.975 463.442-920.676 463.964-918.5 450.25-914.193 423.105-927.193 390.04-935.309 384.065-935.611 383.842-935.915 383.69-936.221 383.588-941.113 374.95-945.713 332.912-948.969 316.652Z" id="C"/><path d="M-274.626 286.377C-274.841 281.83-274.233 276.17-273.719 274.159-273.391 277.901-273.169 283.213-272.766 286.427" id="D"/><path d="M-937.25 359C-939.978 371.372-940.513 385.34-939.496 396.207-945.231 406.427-949.675 431.665-947 449.75-944.975 463.442-920.676 463.964-918.5 450.25-914.193 423.105-924.634 398.225-932.75 392.25-933.052 392.028-933.356 391.875-933.662 391.773L-937.25 359Z" id="E"/></defs><g transform="matrix(0.983219 0 0 0.983217 26.4045 -161.944)"><circle cx="52.9167" cy="244.48" r="79.375" fill="#DA251D"/><path d="M52.9167 164.708C8.85988 164.698-26.8632 200.406-26.8731 244.462-26.8829 288.519 8.82416 324.242 52.8809 324.252 52.8929 324.252 52.9048 324.252 52.9167 324.252 96.9735 324.242 132.681 288.519 132.671 244.462 132.661 200.419 96.9595 164.718 52.9167 164.708ZM52.9167 166.304C96.0923 166.311 131.088 201.317 131.081 244.493 131.074 287.659 96.0826 322.65 52.9167 322.657 9.74102 322.664-25.2654 287.668-25.2723 244.493-25.2792 201.317 9.71601 166.311 52.8917 166.304 52.9 166.304 52.9083 166.304 52.9167 166.304Z" fill="#FFFF00"/><g stroke-dashoffset="181.417" fill="none"><path d="M75.5284 178.811C111.797 191.299 131.074 230.824 118.586 267.092 108.935 295.12 82.5595 313.933 52.9167 313.933 14.5588 313.933-16.5365 282.838-16.5365 244.48-16.5365 214.837 2.27708 188.462 30.3049 178.811" stroke="#FFFF00" stroke-width="0.396875" stroke-linecap="round"/><use width="100%" height="100%" xlink:href="#B" stroke="#DA251D" stroke-width="0.79375" stroke-linejoin="round"></use></g><use width="100%" height="100%" xlink:href="#B" fill="#FFFF00"></use><path d="M29.2438 320.242C32.3735 307.168 45.5093 299.106 58.5834 302.236 67.4966 304.369 74.4559 311.329 76.5895 320.242M33.0648 321.331C35.5932 310.367 46.5308 303.528 57.4947 306.057 65.0881 307.808 71.0174 313.737 72.7685 321.331M42.9527 323.226C44.4344 317.723 50.0964 314.463 55.5994 315.945 59.1506 316.901 61.9245 319.675 62.8806 323.226" stroke="#DA251D" stroke-width="0.396875" stroke-linecap="round" stroke-dashoffset="181.417" fill="none"/><g stroke="#DA251D" stroke-linejoin="round" transform="matrix(-0.299632 -0.631629 -0.640637 0.303905 123.942 -77.969)"><use width="100%" height="100%" xlink:href="#C" stroke-width="2.13049" fill="#FFFF00" transform="matrix(0.264583 0 0 0.264583 -26.8552 164.708)"></use><use width="100%" height="100%" xlink:href="#D" stroke-width="0.563693" fill="none"></use></g><g stroke="#DA251D" stroke-linejoin="round" transform="matrix(-0.514607 -0.473196 -0.479944 0.521945 14.4712 -95.7786)"><use width="100%" height="100%" xlink:href="#E" stroke-width="2.13049" fill="#FFFF00" transform="matrix(0.264583 0 0 0.264583 -26.8552 164.708)"></use><use width="100%" height="100%" xlink:href="#D" stroke-width="0.563693" fill="none"></use></g><g stroke="#DA251D" stroke-linejoin="round" transform="matrix(-0.571969 -0.401978 -0.40771 0.580125 -29.6126 -87.8495)"><use width="100%" height="100%" xlink:href="#E" stroke-width="2.13049" fill="#FFFF00" transform="matrix(0.264583 0 0 0.264583 -26.8552 164.708)"></use><use width="100%" height="100%" xlink:href="#D" stroke-width="0.563693" fill="none"></use></g><g stroke="#DA251D" stroke-linejoin="round" transform="matrix(-0.619544 -0.323882 -0.328501 0.628379 -72.2842 -74.2342)"><use width="100%" height="100%" xlink:href="#E" stroke-width="2.13049" fill="#FFFF00" transform="matrix(0.264583 0 0 0.264583 -26.8552 164.708)"></use><use width="100%" height="100%" xlink:href="#D" stroke-width="0.563693" fill="none"></use></g><g stroke="#DA251D" stroke-linejoin="round" transform="matrix(-0.656519 -0.240244 -0.24367 0.665881 -112.814 -55.1655)"><use width="100%" height="100%" xlink:href="#E" stroke-width="2.13049" fill="#FFFF00" transform="matrix(0.264583 0 0 0.264583 -26.8552 164.708)"></use><use width="100%" height="100%" xlink:href="#D" stroke-width="0.563693" fill="none"></use></g><g stroke="#DA251D" stroke-linejoin="round" transform="matrix(-0.682261 -0.152496 -0.154671 0.69199 -150.507 -30.9699)"><use width="100%" height="100%" xlink:href="#E" stroke-width="2.13049" fill="#FFFF00" transform="matrix(0.264583 0 0 0.264583 -26.8552 164.708)"></use><use width="100%" height="100%" xlink:href="#D" stroke-width="0.563693" fill="none"></use></g><g stroke="#DA251D" stroke-linejoin="round" transform="matrix(-0.696329 -0.0621387 -0.0630248 0.706259 -184.721 -2.06117)"><use width="100%" height="100%" xlink:href="#E" stroke-width="2.13049" fill="#FFFF00" transform="matrix(0.264583 0 0 0.264583 -26.8552 164.708)"></use><use width="100%" height="100%" xlink:href="#D" stroke-width="0.563693" fill="none"></use></g><g stroke="#DA251D" stroke-linejoin="round" transform="matrix(-0.698482 0.0292821 0.0296996 0.708443 -214.868 31.0659)"><use width="100%" height="100%" xlink:href="#E" stroke-width="2.13049" fill="#FFFF00" transform="matrix(0.264583 0 0 0.264583 -26.8552 164.708)"></use><use width="100%" height="100%" xlink:href="#D" stroke-width="0.563693" fill="none"></use></g><g stroke="#DA251D" stroke-linejoin="round" transform="matrix(-0.688684 0.120202 0.121916 0.698505 -240.433 67.8446)"><use width="100%" height="100%" xlink:href="#E" stroke-width="2.13049" fill="#FFFF00" transform="matrix(0.264583 0 0 0.264583 -26.8552 164.708)"></use><use width="100%" height="100%" xlink:href="#D" stroke-width="0.563693" fill="none"></use></g><g stroke="#DA251D" stroke-linejoin="round" transform="matrix(-0.667103 0.209065 0.212046 0.676616 -260.979 107.646)"><use width="100%" height="100%" xlink:href="#E" stroke-width="2.13049" fill="#FFFF00" transform="matrix(0.264583 0 0 0.264583 -26.8552 164.708)"></use><use width="100%" height="100%" xlink:href="#D" stroke-width="0.563693" fill="none"></use></g><g stroke="#DA251D" stroke-linejoin="round" transform="matrix(-0.634108 0.294351 0.298548 0.64315 -276.154 149.788)"><use width="100%" height="100%" xlink:href="#E" stroke-width="2.13049" fill="#FFFF00" transform="matrix(0.264583 0 0 0.264583 -26.8552 164.708)"></use><use width="100%" height="100%" xlink:href="#D" stroke-width="0.563693" fill="none"></use></g><g stroke="#DA251D" stroke-linejoin="round" transform="matrix(-0.590262 0.3746 0.379942 0.59868 -285.698 193.55)"><use width="100%" height="100%" xlink:href="#E" stroke-width="2.13049" fill="#FFFF00" transform="matrix(0.264583 0 0 0.264583 -26.8552 164.708)"></use><use width="100%" height="100%" xlink:href="#D" stroke-width="0.563693" fill="none"></use></g><g stroke="#DA251D" stroke-linejoin="round" transform="matrix(-0.536317 0.44844 0.454835 0.543965 -289.449 238.184)"><use width="100%" height="100%" xlink:href="#E" stroke-width="2.13049" fill="#FFFF00" transform="matrix(0.264583 0 0 0.264583 -26.8552 164.708)"></use><use width="100%" height="100%" xlink:href="#D" stroke-width="0.563693" fill="none"></use></g><g stroke="#DA251D" stroke-linejoin="round" transform="matrix(-0.473196 0.514607 0.521945 0.479944 -287.342 282.926)"><use width="100%" height="100%" xlink:href="#E" stroke-width="2.13049" fill="#FFFF00" transform="matrix(0.264583 0 0 0.264583 -26.8552 164.708)"></use><use width="100%" height="100%" xlink:href="#D" stroke-width="0.563693" fill="none"></use></g><g stroke="#DA251D" stroke-linejoin="round" transform="matrix(-0.401978 0.571969 0.580125 0.40771 -279.413 327.009)"><use width="100%" height="100%" xlink:href="#E" stroke-width="2.13049" fill="#FFFF00" transform="matrix(0.264583 0 0 0.264583 -26.8552 164.708)"></use><use width="100%" height="100%" xlink:href="#D" stroke-width="0.563693" fill="none"></use></g><g stroke="#DA251D" stroke-linejoin="round" transform="matrix(-0.323882 0.619544 0.628379 0.328501 -265.798 369.681)"><use width="100%" height="100%" xlink:href="#E" stroke-width="2.13049" fill="#FFFF00" transform="matrix(0.264583 0 0 0.264583 -26.8552 164.708)"></use><use width="100%" height="100%" xlink:href="#D" stroke-width="0.563693" fill="none"></use></g><g stroke="#DA251D" stroke-linejoin="round" transform="matrix(-0.240244 0.656519 0.665881 0.24367 -246.729 410.211)"><use width="100%" height="100%" xlink:href="#E" stroke-width="2.13049" fill="#FFFF00" transform="matrix(0.264583 0 0 0.264583 -26.8552 164.708)"></use><use width="100%" height="100%" xlink:href="#D" stroke-width="0.563693" fill="none"></use></g><g stroke="#DA251D" stroke-linejoin="round" transform="matrix(-0.152496 0.682261 0.69199 0.154671 -222.533 447.904)"><use width="100%" height="100%" xlink:href="#E" stroke-width="2.13049" fill="#FFFF00" transform="matrix(0.264583 0 0 0.264583 -26.8552 164.708)"></use><use width="100%" height="100%" xlink:href="#D" stroke-width="0.563693" fill="none"></use></g><g stroke="#DA251D" stroke-linejoin="round" transform="matrix(-0.0453056 0.697626 -0.707574 -0.0459517 210.147 388.79)"><use width="100%" height="100%" xlink:href="#E" stroke-width="2.13049" fill="#FFFF00" transform="matrix(0.264583 0 0 0.264583 -26.8552 164.708)"></use><use width="100%" height="100%" xlink:href="#D" stroke-width="0.563693" fill="none"></use></g><g stroke="#DA251D" stroke-linejoin="round" transform="matrix(0.0461404 0.697571 -0.707519 0.0467984 227.638 367.033)"><use width="100%" height="100%" xlink:href="#E" stroke-width="2.13049" fill="#FFFF00" transform="matrix(0.264583 0 0 0.264583 -26.8552 164.708)"></use><use width="100%" height="100%" xlink:href="#D" stroke-width="0.563693" fill="none"></use></g><g stroke="#DA251D" stroke-linejoin="round" transform="matrix(0.136797 0.685581 -0.695358 0.138748 242.14 343.179)"><use width="100%" height="100%" xlink:href="#E" stroke-width="2.13049" fill="#FFFF00" transform="matrix(0.264583 0 0 0.264583 -26.8552 164.708)"></use><use width="100%" height="100%" xlink:href="#D" stroke-width="0.563693" fill="none"></use></g><g stroke="#DA251D" stroke-linejoin="round" transform="matrix(0.225113 0.66186 -0.671299 0.228323 253.403 317.636)"><use width="100%" height="100%" xlink:href="#E" stroke-width="2.13049" fill="#FFFF00" transform="matrix(0.264583 0 0 0.264583 -26.8552 164.708)"></use><use width="100%" height="100%" xlink:href="#D" stroke-width="0.563693" fill="none"></use></g><g stroke="#DA251D" stroke-linejoin="round" transform="matrix(0.309577 0.626815 -0.635753 0.313992 261.237 290.841)"><use width="100%" height="100%" xlink:href="#E" stroke-width="2.13049" fill="#FFFF00" transform="matrix(0.264583 0 0 0.264583 -26.8552 164.708)"></use><use width="100%" height="100%" xlink:href="#D" stroke-width="0.563693" fill="none"></use></g><g stroke="#DA251D" stroke-linejoin="round" transform="matrix(0.388744 0.581044 -0.58933 0.394288 265.506 263.253)"><use width="100%" height="100%" xlink:href="#E" stroke-width="2.13049" fill="#FFFF00" transform="matrix(0.264583 0 0 0.264583 -26.8552 164.708)"></use><use width="100%" height="100%" xlink:href="#D" stroke-width="0.563693" fill="none"></use></g><g stroke="#DA251D" stroke-linejoin="round" transform="matrix(0.46126 0.525332 -0.532823 0.467838 266.138 235.344)"><use width="100%" height="100%" xlink:href="#E" stroke-width="2.13049" fill="#FFFF00" transform="matrix(0.264583 0 0 0.264583 -26.8552 164.708)"></use><use width="100%" height="100%" xlink:href="#D" stroke-width="0.563693" fill="none"></use></g><g stroke="#DA251D" stroke-linejoin="round" transform="matrix(0.525884 0.460631 -0.4672 0.533383 263.121 207.591)"><use width="100%" height="100%" xlink:href="#E" stroke-width="2.13049" fill="#FFFF00" transform="matrix(0.264583 0 0 0.264583 -26.8552 164.708)"></use><use width="100%" height="100%" xlink:href="#D" stroke-width="0.563693" fill="none"></use></g><g stroke="#DA251D" stroke-linejoin="round" transform="matrix(0.581509 0.388049 -0.393583 0.589802 256.508 180.47)"><use width="100%" height="100%" xlink:href="#E" stroke-width="2.13049" fill="#FFFF00" transform="matrix(0.264583 0 0 0.264583 -26.8552 164.708)"></use><use width="100%" height="100%" xlink:href="#D" stroke-width="0.563693" fill="none"></use></g><g stroke="#DA251D" stroke-linejoin="round" transform="matrix(0.627185 0.308827 -0.313231 0.636129 246.411 154.443)"><use width="100%" height="100%" xlink:href="#E" stroke-width="2.13049" fill="#FFFF00" transform="matrix(0.264583 0 0 0.264583 -26.8552 164.708)"></use><use width="100%" height="100%" xlink:href="#D" stroke-width="0.563693" fill="none"></use></g><g stroke="#DA251D" stroke-linejoin="round" transform="matrix(0.662129 0.224321 -0.22752 0.671571 233.003 129.957)"><use width="100%" height="100%" xlink:href="#E" stroke-width="2.13049" fill="#FFFF00" transform="matrix(0.264583 0 0 0.264583 -26.8552 164.708)"></use><use width="100%" height="100%" xlink:href="#D" stroke-width="0.563693" fill="none"></use></g><g stroke="#DA251D" stroke-linejoin="round" transform="matrix(0.685744 0.135977 -0.137916 0.695523 216.515 107.431)"><use width="100%" height="100%" xlink:href="#E" stroke-width="2.13049" fill="#FFFF00" transform="matrix(0.264583 0 0 0.264583 -26.8552 164.708)"></use><use width="100%" height="100%" xlink:href="#D" stroke-width="0.563693" fill="none"></use></g><g stroke="#DA251D" stroke-linejoin="round" transform="matrix(0.697626 0.0453056 -0.0459517 0.707574 197.226 87.2498)"><use width="100%" height="100%" xlink:href="#E" stroke-width="2.13049" fill="#FFFF00" transform="matrix(0.264583 0 0 0.264583 -26.8552 164.708)"></use><use width="100%" height="100%" xlink:href="#D" stroke-width="0.563693" fill="none"></use></g><g stroke="#DA251D" stroke-linejoin="round" transform="matrix(0.697571 -0.0461404 0.0467984 0.707519 175.469 69.7588)"><use width="100%" height="100%" xlink:href="#E" stroke-width="2.13049" fill="#FFFF00" transform="matrix(0.264583 0 0 0.264583 -26.8552 164.708)"></use><use width="100%" height="100%" xlink:href="#D" stroke-width="0.563693" fill="none"></use></g><g stroke="#DA251D" stroke-linejoin="round" transform="matrix(0.685581 -0.136797 0.138748 0.695358 151.615 55.2572)"><use width="100%" height="100%" xlink:href="#E" stroke-width="2.13049" fill="#FFFF00" transform="matrix(0.264583 0 0 0.264583 -26.8552 164.708)"></use><use width="100%" height="100%" xlink:href="#D" stroke-width="0.563693" fill="none"></use></g><g stroke="#DA251D" stroke-linejoin="round" transform="matrix(0.66186 -0.225113 0.228323 0.671299 126.072 43.9933)"><use width="100%" height="100%" xlink:href="#E" stroke-width="2.13049" fill="#FFFF00" transform="matrix(0.264583 0 0 0.264583 -26.8552 164.708)"></use><use width="100%" height="100%" xlink:href="#D" stroke-width="0.563693" fill="none"></use></g><g stroke="#DA251D" stroke-linejoin="round" transform="matrix(0.626815 -0.309577 0.313992 0.635753 99.2775 36.1598)"><use width="100%" height="100%" xlink:href="#E" stroke-width="2.13049" fill="#FFFF00" transform="matrix(0.264583 0 0 0.264583 -26.8552 164.708)"></use><use width="100%" height="100%" xlink:href="#D" stroke-width="0.563693" fill="none"></use></g><g stroke="#DA251D" stroke-linejoin="round" transform="matrix(-1 0 0 1 105.833 0)"><g transform="matrix(-0.299632 -0.631629 -0.640637 0.303905 123.942 -77.969)"><use width="100%" height="100%" xlink:href="#C" stroke-width="2.13049" fill="#FFFF00" transform="matrix(0.264583 0 0 0.264583 -26.8552 164.708)"></use><use width="100%" height="100%" xlink:href="#D" stroke-width="0.563693" fill="none"></use></g><g transform="matrix(-0.514607 -0.473196 -0.479944 0.521945 14.4712 -95.7786)"><use width="100%" height="100%" xlink:href="#E" stroke-width="2.13049" fill="#FFFF00" transform="matrix(0.264583 0 0 0.264583 -26.8552 164.708)"></use><use width="100%" height="100%" xlink:href="#D" stroke-width="0.563693" fill="none"></use></g><g transform="matrix(-0.571969 -0.401978 -0.40771 0.580125 -29.6126 -87.8495)"><use width="100%" height="100%" xlink:href="#E" stroke-width="2.13049" fill="#FFFF00" transform="matrix(0.264583 0 0 0.264583 -26.8552 164.708)"></use><use width="100%" height="100%" xlink:href="#D" stroke-width="0.563693" fill="none"></use></g><g transform="matrix(-0.619544 -0.323882 -0.328501 0.628379 -72.2842 -74.2342)"><use width="100%" height="100%" xlink:href="#E" stroke-width="2.13049" fill="#FFFF00" transform="matrix(0.264583 0 0 0.264583 -26.8552 164.708)"></use><use width="100%" height="100%" xlink:href="#D" stroke-width="0.563693" fill="none"></use></g><g transform="matrix(-0.656519 -0.240244 -0.24367 0.665881 -112.814 -55.1655)"><use width="100%" height="100%" xlink:href="#E" stroke-width="2.13049" fill="#FFFF00" transform="matrix(0.264583 0 0 0.264583 -26.8552 164.708)"></use><use width="100%" height="100%" xlink:href="#D" stroke-width="0.563693" fill="none"></use></g><g transform="matrix(-0.682261 -0.152496 -0.154671 0.69199 -150.507 -30.9699)"><use width="100%" height="100%" xlink:href="#E" stroke-width="2.13049" fill="#FFFF00" transform="matrix(0.264583 0 0 0.264583 -26.8552 164.708)"></use><use width="100%" height="100%" xlink:href="#D" stroke-width="0.563693" fill="none"></use></g><g transform="matrix(-0.696329 -0.0621387 -0.0630248 0.706259 -184.721 -2.06117)"><use width="100%" height="100%" xlink:href="#E" stroke-width="2.13049" fill="#FFFF00" transform="matrix(0.264583 0 0 0.264583 -26.8552 164.708)"></use><use width="100%" height="100%" xlink:href="#D" stroke-width="0.563693" fill="none"></use></g><g transform="matrix(-0.698482 0.0292821 0.0296996 0.708443 -214.868 31.0659)"><use width="100%" height="100%" xlink:href="#E" stroke-width="2.13049" fill="#FFFF00" transform="matrix(0.264583 0 0 0.264583 -26.8552 164.708)"></use><use width="100%" height="100%" xlink:href="#D" stroke-width="0.563693" fill="none"></use></g><g transform="matrix(-0.688684 0.120202 0.121916 0.698505 -240.433 67.8446)"><use width="100%" height="100%" xlink:href="#E" stroke-width="2.13049" fill="#FFFF00" transform="matrix(0.264583 0 0 0.264583 -26.8552 164.708)"></use><use width="100%" height="100%" xlink:href="#D" stroke-width="0.563693" fill="none"></use></g><g transform="matrix(-0.667103 0.209065 0.212046 0.676616 -260.979 107.646)"><use width="100%" height="100%" xlink:href="#E" stroke-width="2.13049" fill="#FFFF00" transform="matrix(0.264583 0 0 0.264583 -26.8552 164.708)"></use><use width="100%" height="100%" xlink:href="#D" stroke-width="0.563693" fill="none"></use></g><g transform="matrix(-0.634108 0.294351 0.298548 0.64315 -276.154 149.788)"><use width="100%" height="100%" xlink:href="#E" stroke-width="2.13049" fill="#FFFF00" transform="matrix(0.264583 0 0 0.264583 -26.8552 164.708)"></use><use width="100%" height="100%" xlink:href="#D" stroke-width="0.563693" fill="none"></use></g><g transform="matrix(-0.590262 0.3746 0.379942 0.59868 -285.698 193.55)"><use width="100%" height="100%" xlink:href="#E" stroke-width="2.13049" fill="#FFFF00" transform="matrix(0.264583 0 0 0.264583 -26.8552 164.708)"></use><use width="100%" height="100%" xlink:href="#D" stroke-width="0.563693" fill="none"></use></g><g transform="matrix(-0.536317 0.44844 0.454835 0.543965 -289.449 238.184)"><use width="100%" height="100%" xlink:href="#E" stroke-width="2.13049" fill="#FFFF00" transform="matrix(0.264583 0 0 0.264583 -26.8552 164.708)"></use><use width="100%" height="100%" xlink:href="#D" stroke-width="0.563693" fill="none"></use></g><g transform="matrix(-0.473196 0.514607 0.521945 0.479944 -287.342 282.926)"><use width="100%" height="100%" xlink:href="#E" stroke-width="2.13049" fill="#FFFF00" transform="matrix(0.264583 0 0 0.264583 -26.8552 164.708)"></use><use width="100%" height="100%" xlink:href="#D" stroke-width="0.563693" fill="none"></use></g><g transform="matrix(-0.401978 0.571969 0.580125 0.40771 -279.413 327.009)"><use width="100%" height="100%" xlink:href="#E" stroke-width="2.13049" fill="#FFFF00" transform="matrix(0.264583 0 0 0.264583 -26.8552 164.708)"></use><use width="100%" height="100%" xlink:href="#D" stroke-width="0.563693" fill="none"></use></g><g transform="matrix(-0.323882 0.619544 0.628379 0.328501 -265.798 369.681)"><use width="100%" height="100%" xlink:href="#E" stroke-width="2.13049" fill="#FFFF00" transform="matrix(0.264583 0 0 0.264583 -26.8552 164.708)"></use><use width="100%" height="100%" xlink:href="#D" stroke-width="0.563693" fill="none"></use></g><g transform="matrix(-0.240244 0.656519 0.665881 0.24367 -246.729 410.211)"><use width="100%" height="100%" xlink:href="#E" stroke-width="2.13049" fill="#FFFF00" transform="matrix(0.264583 0 0 0.264583 -26.8552 164.708)"></use><use width="100%" height="100%" xlink:href="#D" stroke-width="0.563693" fill="none"></use></g><g transform="matrix(-0.152496 0.682261 0.69199 0.154671 -222.533 447.904)"><use width="100%" height="100%" xlink:href="#E" stroke-width="2.13049" fill="#FFFF00" transform="matrix(0.264583 0 0 0.264583 -26.8552 164.708)"></use><use width="100%" height="100%" xlink:href="#D" stroke-width="0.563693" fill="none"></use></g><g transform="matrix(-0.0453056 0.697626 -0.707574 -0.0459517 210.147 388.79)"><use width="100%" height="100%" xlink:href="#E" stroke-width="2.13049" fill="#FFFF00" transform="matrix(0.264583 0 0 0.264583 -26.8552 164.708)"></use><use width="100%" height="100%" xlink:href="#D" stroke-width="0.563693" fill="none"></use></g><g transform="matrix(0.0461404 0.697571 -0.707519 0.0467984 227.638 367.033)"><use width="100%" height="100%" xlink:href="#E" stroke-width="2.13049" fill="#FFFF00" transform="matrix(0.264583 0 0 0.264583 -26.8552 164.708)"></use><use width="100%" height="100%" xlink:href="#D" stroke-width="0.563693" fill="none"></use></g><g transform="matrix(0.136797 0.685581 -0.695358 0.138748 242.14 343.179)"><use width="100%" height="100%" xlink:href="#E" stroke-width="2.13049" fill="#FFFF00" transform="matrix(0.264583 0 0 0.264583 -26.8552 164.708)"></use><use width="100%" height="100%" xlink:href="#D" stroke-width="0.563693" fill="none"></use></g><g transform="matrix(0.225113 0.66186 -0.671299 0.228323 253.403 317.636)"><use width="100%" height="100%" xlink:href="#E" stroke-width="2.13049" fill="#FFFF00" transform="matrix(0.264583 0 0 0.264583 -26.8552 164.708)"></use><use width="100%" height="100%" xlink:href="#D" stroke-width="0.563693" fill="none"></use></g><g transform="matrix(0.309577 0.626815 -0.635753 0.313992 261.237 290.841)"><use width="100%" height="100%" xlink:href="#E" stroke-width="2.13049" fill="#FFFF00" transform="matrix(0.264583 0 0 0.264583 -26.8552 164.708)"></use><use width="100%" height="100%" xlink:href="#D" stroke-width="0.563693" fill="none"></use></g><g transform="matrix(0.388744 0.581044 -0.58933 0.394288 265.506 263.253)"><use width="100%" height="100%" xlink:href="#E" stroke-width="2.13049" fill="#FFFF00" transform="matrix(0.264583 0 0 0.264583 -26.8552 164.708)"></use><use width="100%" height="100%" xlink:href="#D" stroke-width="0.563693" fill="none"></use></g><g transform="matrix(0.46126 0.525332 -0.532823 0.467838 266.138 235.344)"><use width="100%" height="100%" xlink:href="#E" stroke-width="2.13049" fill="#FFFF00" transform="matrix(0.264583 0 0 0.264583 -26.8552 164.708)"></use><use width="100%" height="100%" xlink:href="#D" stroke-width="0.563693" fill="none"></use></g><g transform="matrix(0.525884 0.460631 -0.4672 0.533383 263.121 207.591)"><use width="100%" height="100%" xlink:href="#E" stroke-width="2.13049" fill="#FFFF00" transform="matrix(0.264583 0 0 0.264583 -26.8552 164.708)"></use><use width="100%" height="100%" xlink:href="#D" stroke-width="0.563693" fill="none"></use></g><g transform="matrix(0.581509 0.388049 -0.393583 0.589802 256.508 180.47)"><use width="100%" height="100%" xlink:href="#E" stroke-width="2.13049" fill="#FFFF00" transform="matrix(0.264583 0 0 0.264583 -26.8552 164.708)"></use><use width="100%" height="100%" xlink:href="#D" stroke-width="0.563693" fill="none"></use></g><g transform="matrix(0.627185 0.308827 -0.313231 0.636129 246.411 154.443)"><use width="100%" height="100%" xlink:href="#E" stroke-width="2.13049" fill="#FFFF00" transform="matrix(0.264583 0 0 0.264583 -26.8552 164.708)"></use><use width="100%" height="100%" xlink:href="#D" stroke-width="0.563693" fill="none"></use></g><g transform="matrix(0.662129 0.224321 -0.22752 0.671571 233.003 129.957)"><use width="100%" height="100%" xlink:href="#E" stroke-width="2.13049" fill="#FFFF00" transform="matrix(0.264583 0 0 0.264583 -26.8552 164.708)"></use><use width="100%" height="100%" xlink:href="#D" stroke-width="0.563693" fill="none"></use></g><g transform="matrix(0.685744 0.135977 -0.137916 0.695523 216.515 107.431)"><use width="100%" height="100%" xlink:href="#E" stroke-width="2.13049" fill="#FFFF00" transform="matrix(0.264583 0 0 0.264583 -26.8552 164.708)"></use><use width="100%" height="100%" xlink:href="#D" stroke-width="0.563693" fill="none"></use></g><g transform="matrix(0.697626 0.0453056 -0.0459517 0.707574 197.226 87.2498)"><use width="100%" height="100%" xlink:href="#E" stroke-width="2.13049" fill="#FFFF00" transform="matrix(0.264583 0 0 0.264583 -26.8552 164.708)"></use><use width="100%" height="100%" xlink:href="#D" stroke-width="0.563693" fill="none"></use></g><g transform="matrix(0.697571 -0.0461404 0.0467984 0.707519 175.469 69.7588)"><use width="100%" height="100%" xlink:href="#E" stroke-width="2.13049" fill="#FFFF00" transform="matrix(0.264583 0 0 0.264583 -26.8552 164.708)"></use><use width="100%" height="100%" xlink:href="#D" stroke-width="0.563693" fill="none"></use></g><g transform="matrix(0.685581 -0.136797 0.138748 0.695358 151.615 55.2572)"><use width="100%" height="100%" xlink:href="#E" stroke-width="2.13049" fill="#FFFF00" transform="matrix(0.264583 0 0 0.264583 -26.8552 164.708)"></use><use width="100%" height="100%" xlink:href="#D" stroke-width="0.563693" fill="none"></use></g><g transform="matrix(0.66186 -0.225113 0.228323 0.671299 126.072 43.9933)"><use width="100%" height="100%" xlink:href="#E" stroke-width="2.13049" fill="#FFFF00" transform="matrix(0.264583 0 0 0.264583 -26.8552 164.708)"></use><use width="100%" height="100%" xlink:href="#D" stroke-width="0.563693" fill="none"></use></g><g transform="matrix(0.626815 -0.309577 0.313992 0.635753 99.2775 36.1598)"><use width="100%" height="100%" xlink:href="#E" stroke-width="2.13049" fill="#FFFF00" transform="matrix(0.264583 0 0 0.264583 -26.8552 164.708)"></use><use width="100%" height="100%" xlink:href="#D" stroke-width="0.563693" fill="none"></use></g></g><g transform="matrix(0.722179 0 0 0.72293 -264.295 109.583)"><linearGradient x1="439.244" y1="148.058" x2="456.587" y2="148.058" gradientUnits="userSpaceOnUse"><stop offset="0"/><stop offset="1" stop-color="#FFFFFF"/></linearGradient><linearGradient x1="365.922" y1="174.649" x2="439.244" y2="174.649" gradientUnits="userSpaceOnUse"><stop offset="0"/><stop offset="1" stop-color="#FFFFFF"/></linearGradient><linearGradient x1="393.909" y1="217.717" x2="439.244" y2="217.717" gradientUnits="userSpaceOnUse"><stop offset="0"/><stop offset="1" stop-color="#FFFFFF"/></linearGradient><linearGradient x1="439.244" y1="217.717" x2="484.572" y2="217.717" gradientUnits="userSpaceOnUse"><stop offset="0"/><stop offset="1" stop-color="#FFFFFF"/></linearGradient><linearGradient x1="439.244" y1="179.18" x2="512.562" y2="179.18" gradientUnits="userSpaceOnUse"><stop offset="0"/><stop offset="1" stop-color="#FFFFFF"/></linearGradient><path d="M439.244 109.584 456.587 162.768 439.244 186.53Z" fill="#FCD134"/><path d="M439.244 109.584 421.894 162.768 439.244 186.53Z" fill="#FFFF00"/><path d="M365.922 162.768 421.894 162.768 439.244 186.53Z" fill="#FCD134"/><path d="M365.922 162.768 411.254 195.591 439.244 186.53Z" fill="#FFFF00"/><path d="M393.909 248.903 411.254 195.591 439.244 186.53Z" fill="#FCD134"/><path d="M393.909 248.903 439.244 215.951 439.244 186.53Z" fill="#FFFF00"/><path d="M484.572 248.903 439.244 215.951 439.244 186.53Z" fill="#FCD134"/><path d="M484.572 248.903 467.232 195.591 439.244 186.53Z" fill="#FFFF00"/><path d="M512.563 162.768 467.232 195.591 439.244 186.53Z" fill="#FCD134"/><path d="M439.244 109.584 456.587 162.768 439.244 186.53Z" fill="#CCCC00" opacity="0.3"/><path d="M365.922 162.768 421.894 162.768 439.244 186.53Z" fill="#EED025" opacity="0.31"/><path d="M393.909 248.903 411.254 195.591 439.244 186.53Z" fill="#EED025" opacity="0.3"/><path d="M484.572 248.903 439.244 215.951 439.244 186.53Z" fill="#EED025" opacity="0.3"/><path d="M512.563 162.768 467.232 195.591 439.244 186.53Z" fill="#EED025" opacity="0.3"/><path d="M512.563 162.768 456.587 162.768 439.244 186.53Z" fill="#FFFF00"/></g></g></svg>