<svg height="120pt" preserveAspectRatio="xMidYMid meet" viewBox="0 0 120 120" width="120pt" xmlns="http://www.w3.org/2000/svg"><g transform="matrix(.1 0 0 -.1 0 120)" fill="param(fill)" fill-opacity="param(fill-opacity)" stroke="param(outline)" stroke-opacity="param(outline-opacity)" stroke-width="param(outline-width)" ><path d="m760 1091c-25-9-64-29-87-44-73-46-123-62-198-62-58 0-78 5-119 28-27 15-50 27-52 27s-4-116-4-258v-259l53-29c44-25 63-29 127-29 79 0 76-1 239 86 54 28 77 35 140 37 68 3 82 0 134-26l57-29-2 261-3 261-54 28c-66 33-160 36-231 8z"/><path d="m161 1081c-7-13-11-174-11-483 0-491 1-505 46-496 18 3 19 17 19 498v495l-22 3c-14 2-26-4-32-17z"/></g></svg>